<svg xmlns="http://www.w3.org/2000/svg" xmlns:xlink="http://www.w3.org/1999/xlink" width="500" zoomAndPan="magnify" viewBox="0 0 375 374.999991" height="500" preserveAspectRatio="xMidYMid meet" version="1.0"><defs><clipPath id="737c200772"><path d="M 92 9.074219 L 275 9.074219 L 275 366.074219 L 92 366.074219 Z M 92 9.074219 " clip-rule="nonzero"/></clipPath></defs><path fill="#4e7896" d="M 156.148438 198.398438 C 156.148438 198.398438 146.738281 204.121094 162.695312 205.757812 C 181.929688 208.210938 192.160156 207.804688 213.441406 203.714844 C 213.441406 203.714844 219.171875 207.394531 226.945312 210.257812 C 179.066406 230.703125 118.496094 209.027344 156.152344 198.398438 Z M 150.011719 171.820312 C 150.011719 171.820312 139.78125 179.589844 155.742188 181.226562 C 176.613281 183.269531 192.980469 183.679688 221.21875 177.953125 C 221.21875 177.953125 224.902344 182.042969 231.039062 184.085938 C 173.335938 201.261719 108.675781 185.722656 150.011719 171.820312 Z M 262.960938 218.429688 C 262.960938 218.429688 269.917969 224.15625 255.1875 228.652344 C 227.765625 236.832031 140.195312 239.285156 115.636719 228.652344 C 107.042969 224.972656 123.410156 219.65625 128.730469 218.839844 C 134.050781 217.613281 136.914062 217.613281 136.914062 217.613281 C 127.503906 211.070312 74.304688 231.105469 109.90625 236.832031 C 207.710938 252.777344 288.332031 229.878906 262.960938 218.429688 Z M 160.65625 144.011719 C 160.65625 144.011719 116.046875 154.640625 144.695312 158.320312 C 156.972656 159.957031 181.117188 159.550781 203.625 157.914062 C 222.039062 156.277344 240.453125 153.003906 240.453125 153.003906 C 240.453125 153.003906 233.90625 155.867188 229.40625 158.730469 C 183.980469 170.585938 96.816406 165.273438 121.777344 153.003906 C 143.054688 142.78125 160.652344 144.007812 160.652344 144.007812 Z M 240.453125 188.582031 C 286.285156 164.863281 265.007812 141.964844 250.273438 144.828125 C 246.589844 145.644531 244.953125 146.464844 244.953125 146.464844 C 244.953125 146.464844 246.183594 144.011719 249.046875 143.191406 C 278.101562 132.96875 301.019531 173.859375 239.636719 189.804688 C 239.636719 189.804688 240.046875 189.398438 240.453125 188.578125 Z M 165.15625 253.1875 C 209.351562 256.050781 276.867188 251.550781 278.515625 230.695312 C 278.515625 230.695312 275.242188 238.875 242.09375 245.007812 C 204.445312 251.960938 157.792969 251.140625 130.382812 246.644531 C 130.382812 246.644531 136.109375 251.550781 165.164062 253.1875 Z M 165.15625 253.1875 " fill-opacity="1" fill-rule="nonzero"/><g clip-path="url(#737c200772)"><path fill="#f58219" d="M 212.621094 9.074219 C 212.621094 9.074219 237.996094 34.835938 188.476562 73.679688 C 148.785156 105.167969 179.472656 123.15625 188.476562 143.601562 C 165.152344 122.75 148.375 104.347656 159.832031 87.175781 C 176.613281 61.824219 222.859375 49.5625 212.625 9.074219 Z M 199.535156 126.429688 C 211.402344 139.925781 196.261719 152.191406 196.261719 152.191406 C 196.261719 152.191406 226.542969 136.652344 212.628906 117.4375 C 199.945312 99.035156 190.121094 90.039062 243.320312 59.378906 C 243.320312 59.378906 159.429688 80.234375 199.535156 126.441406 Z M 169.246094 346.003906 L 169.246094 305.929688 C 169.246094 295.707031 163.515625 288.757812 149.195312 288.757812 C 141.007812 288.757812 134.050781 290.800781 127.914062 293.246094 L 129.960938 300.609375 C 134.453125 298.972656 140.191406 297.335938 146.328125 297.335938 C 154.105469 297.335938 157.789062 300.609375 157.789062 307.148438 L 157.789062 312.464844 L 153.695312 312.464844 C 134.054688 312.464844 125.050781 319.824219 125.050781 331.683594 C 125.050781 341.496094 131.1875 347.222656 142.238281 347.222656 C 149.195312 347.222656 154.515625 343.949219 159.425781 339.859375 L 160.246094 345.996094 L 169.246094 345.996094 Z M 157.789062 332.917969 C 153.695312 336.597656 149.195312 338.644531 145.101562 338.644531 C 139.78125 338.644531 136.507812 335.371094 136.507812 329.648438 C 136.507812 323.921875 139.78125 319.832031 152.875 319.832031 L 157.789062 319.832031 Z M 207.714844 346.003906 L 193.390625 346.003906 L 176.207031 289.984375 L 188.484375 289.984375 L 199.121094 324.332031 L 201.578125 334.554688 C 206.898438 319.832031 210.992188 304.703125 212.628906 289.984375 L 224.902344 289.984375 C 221.628906 308.386719 215.902344 328.421875 207.71875 346.003906 Z M 274.007812 346.003906 L 274.007812 305.929688 C 274.007812 295.707031 268.28125 288.757812 253.957031 288.757812 C 245.773438 288.757812 238.816406 290.800781 232.675781 293.246094 L 234.3125 300.609375 C 239.226562 298.972656 244.953125 297.335938 251.09375 297.335938 C 258.867188 297.335938 262.550781 300.609375 262.550781 307.148438 L 262.550781 312.464844 L 258.460938 312.464844 C 238.816406 312.464844 229.8125 319.824219 229.8125 331.683594 C 229.8125 341.496094 235.542969 347.222656 246.589844 347.222656 C 253.957031 347.222656 259.277344 343.949219 264.1875 339.859375 L 265.003906 345.996094 L 274.007812 345.996094 Z M 262.550781 332.917969 C 258.460938 336.597656 253.957031 338.644531 249.863281 338.644531 C 244.542969 338.644531 241.269531 335.371094 241.269531 329.648438 C 241.269531 323.921875 244.546875 319.832031 257.640625 319.832031 L 262.550781 319.832031 Z M 112.367188 355.410156 C 109.09375 360.316406 104.179688 363.996094 98.042969 366.039062 L 92.71875 359.5 C 96.8125 357.046875 100.90625 353.367188 102.542969 350.097656 C 104.179688 347.234375 104.589844 343.144531 104.589844 333.742188 L 104.589844 269.953125 L 116.867188 269.953125 L 116.867188 332.921875 C 116.867188 345.597656 115.636719 350.507812 112.371094 355.414062 Z M 112.367188 355.410156 " fill-opacity="1" fill-rule="nonzero"/></g></svg>