<svg xmlns="http://www.w3.org/2000/svg" xmlns:xlink="http://www.w3.org/1999/xlink" width="500" zoomAndPan="magnify" viewBox="0 0 375 374.999991" height="500" preserveAspectRatio="xMidYMid meet" version="1.0"><defs><clipPath id="9eec94e78d"><path d="M 29 9 L 345.945312 9 L 345.945312 366.269531 L 29 366.269531 Z M 29 9 " clip-rule="nonzero"/></clipPath></defs><g clip-path="url(#9eec94e78d)"><path fill="#539e43" d="M 187.320312 366.222656 C 182.40625 366.222656 177.820312 364.910156 173.570312 362.625 L 130.023438 336.738281 C 123.476562 333.140625 126.75 331.832031 128.714844 331.175781 C 137.554688 328.222656 139.191406 327.566406 148.359375 322.324219 C 149.339844 321.667969 150.652344 322.003906 151.632812 322.660156 L 185.023438 342.636719 C 186.332031 343.289062 187.976562 343.289062 188.964844 342.636719 L 319.59375 266.96875 C 320.902344 266.3125 321.558594 265.003906 321.558594 263.359375 L 321.558594 112.335938 C 321.558594 110.699219 320.902344 109.386719 319.59375 108.734375 L 188.964844 33.382812 C 187.65625 32.730469 186.011719 32.730469 185.023438 33.382812 L 54.394531 108.734375 C 53.082031 109.386719 52.425781 111.027344 52.425781 112.335938 L 52.425781 263.359375 C 52.425781 264.671875 53.082031 266.316406 54.390625 266.96875 L 90.078125 287.601562 C 109.398438 297.429688 121.511719 285.96875 121.511719 274.5 L 121.511719 125.441406 C 121.511719 123.476562 123.148438 121.511719 125.441406 121.511719 L 142.136719 121.511719 C 144.101562 121.511719 146.066406 123.148438 146.066406 125.441406 L 146.066406 274.5 C 146.066406 300.386719 131.988281 315.453125 107.429688 315.453125 C 99.902344 315.453125 94.007812 315.453125 77.308594 307.257812 L 42.929688 287.601562 C 34.417969 282.695312 29.179688 273.523438 29.179688 263.695312 L 29.179688 112.671875 C 29.179688 102.835938 34.417969 93.664062 42.929688 88.75 L 173.570312 13.078125 C 181.75 8.488281 192.894531 8.488281 201.074219 13.074219 L 331.714844 88.75 C 340.226562 93.664062 345.464844 102.835938 345.464844 112.667969 L 345.464844 263.691406 C 345.464844 273.519531 340.226562 282.691406 331.714844 287.597656 L 201.074219 363.277344 C 196.824219 365.242188 191.90625 366.21875 187.320312 366.21875 Z M 227.597656 262.382812 C 170.296875 262.382812 158.511719 236.164062 158.511719 213.886719 C 158.511719 211.921875 160.140625 209.957031 162.4375 209.957031 L 179.464844 209.957031 C 181.429688 209.957031 183.058594 211.265625 183.058594 213.230469 C 185.679688 230.601562 193.214844 239.117188 227.921875 239.117188 C 255.421875 239.117188 267.210938 232.886719 267.210938 218.152344 C 267.210938 209.636719 263.933594 203.40625 221.050781 199.152344 C 185.359375 195.542969 163.09375 187.679688 163.09375 159.1875 C 163.09375 132.648438 185.359375 116.921875 222.683594 116.921875 C 264.589844 116.921875 285.222656 131.335938 287.84375 162.785156 C 287.84375 163.773438 287.507812 164.75 286.855469 165.738281 C 286.199219 166.394531 285.222656 167.046875 284.234375 167.046875 L 267.210938 167.046875 C 265.578125 167.046875 263.933594 165.738281 263.613281 164.09375 C 259.683594 146.082031 249.527344 140.1875 222.683594 140.1875 C 192.558594 140.1875 188.964844 150.667969 188.964844 158.53125 C 188.964844 168.023438 193.214844 170.980469 233.8125 176.222656 C 274.089844 181.460938 293.082031 188.992188 293.082031 217.164062 C 292.746094 245.992188 269.171875 262.382812 227.597656 262.382812 Z M 227.597656 262.382812 " fill-opacity="1" fill-rule="nonzero"/></g></svg>