<svg xmlns="http://www.w3.org/2000/svg" xmlns:xlink="http://www.w3.org/1999/xlink" width="500" zoomAndPan="magnify" viewBox="0 0 375 374.999991" height="500" preserveAspectRatio="xMidYMid meet" version="1.0"><defs><clipPath id="7c52fed287"><path d="M 5.058594 25 L 370 25 L 370 350 L 5.058594 350 Z M 5.058594 25 " clip-rule="nonzero"/></clipPath></defs><g clip-path="url(#7c52fed287)"><path fill="#00d8ff" d="M 305.121094 130.433594 C 301.347656 129.132812 297.433594 127.902344 293.390625 126.742188 C 294.058594 124.039062 294.671875 121.371094 295.210938 118.75 C 304.082031 75.699219 298.289062 41.019531 278.453125 29.601562 C 259.429688 18.652344 228.332031 30.070312 196.921875 57.359375 C 193.90625 59.984375 190.871094 62.761719 187.851562 65.675781 C 185.832031 63.746094 183.824219 61.886719 181.816406 60.105469 C 148.894531 30.925781 115.902344 18.625 96.089844 30.078125 C 77.089844 41.058594 71.464844 73.660156 79.460938 114.460938 C 80.234375 118.402344 81.136719 122.425781 82.15625 126.515625 C 77.488281 127.839844 72.980469 129.25 68.667969 130.75 C 30.074219 144.183594 5.429688 165.238281 5.429688 187.082031 C 5.429688 209.628906 31.886719 232.261719 72.082031 245.980469 C 75.253906 247.058594 78.546875 248.082031 81.9375 249.050781 C 80.835938 253.472656 79.878906 257.808594 79.074219 262.042969 C 71.453125 302.132812 77.40625 333.964844 96.351562 344.871094 C 115.921875 356.144531 148.769531 344.558594 180.746094 316.648438 C 183.28125 314.445312 185.816406 312.101562 188.351562 309.65625 C 191.65625 312.8125 194.945312 315.8125 198.203125 318.625 C 229.1875 345.238281 259.785156 355.988281 278.710938 345.054688 C 298.257812 333.753906 304.625 299.546875 296.363281 257.949219 C 295.738281 254.765625 294.996094 251.523438 294.1875 248.226562 C 296.492188 247.542969 298.757812 246.832031 300.964844 246.105469 C 342.753906 232.273438 369.933594 209.941406 369.933594 187.082031 C 369.933594 165.160156 344.492188 143.964844 305.121094 130.433594 Z M 296.066406 231.351562 C 294.074219 232.003906 292.023438 232.644531 289.941406 233.253906 C 285.328125 218.683594 279.109375 203.171875 271.476562 187.152344 C 278.75 171.511719 284.730469 156.207031 289.21875 141.722656 C 292.949219 142.800781 296.5625 143.933594 300.050781 145.132812 C 333.785156 156.726562 354.359375 173.875 354.359375 187.082031 C 354.359375 201.140625 332.144531 219.410156 296.066406 231.351562 Z M 281.085938 260.964844 C 284.746094 279.359375 285.257812 295.992188 282.839844 309 C 280.675781 320.6875 276.304688 328.476562 270.90625 331.589844 C 259.414062 338.230469 234.855469 329.601562 208.371094 306.839844 C 205.324219 304.222656 202.261719 301.4375 199.199219 298.496094 C 209.46875 287.277344 219.734375 274.242188 229.757812 259.753906 C 247.371094 258.207031 264.015625 255.648438 279.121094 252.164062 C 279.863281 255.164062 280.515625 258.09375 281.085938 260.964844 Z M 129.703125 330.441406 C 118.480469 334.40625 109.542969 334.519531 104.136719 331.40625 C 92.640625 324.78125 87.859375 299.21875 94.378906 264.945312 C 95.128906 261.019531 96.015625 256.984375 97.042969 252.859375 C 111.972656 256.160156 128.5 258.53125 146.160156 259.953125 C 156.25 274.128906 166.8125 287.152344 177.449219 298.550781 C 175.128906 300.796875 172.808594 302.929688 170.5 304.933594 C 156.363281 317.289062 142.191406 326.046875 129.703125 330.441406 Z M 77.125 231.265625 C 59.351562 225.195312 44.671875 217.320312 34.609375 208.703125 C 25.570312 200.984375 21.003906 193.308594 21.003906 187.082031 C 21.003906 173.832031 40.792969 156.921875 73.796875 145.433594 C 77.800781 144.039062 81.992188 142.726562 86.34375 141.492188 C 90.90625 156.304688 96.890625 171.796875 104.109375 187.449219 C 96.792969 203.34375 90.726562 219.082031 86.121094 234.082031 C 83.019531 233.183594 80.015625 232.246094 77.125 231.265625 Z M 94.75 111.472656 C 87.898438 76.519531 92.449219 50.152344 103.898438 43.535156 C 116.089844 36.484375 143.054688 46.535156 171.46875 71.730469 C 173.292969 73.34375 175.117188 75.027344 176.953125 76.773438 C 166.359375 88.125 155.894531 101.050781 145.894531 115.140625 C 128.75 116.726562 112.34375 119.273438 97.253906 122.6875 C 96.304688 118.875 95.464844 115.132812 94.75 111.472656 Z M 251.96875 150.238281 C 248.367188 144.019531 244.667969 137.945312 240.894531 132.035156 C 252.527344 133.503906 263.660156 135.453125 274.125 137.839844 C 270.992188 147.890625 267.078125 158.402344 262.464844 169.183594 C 259.160156 162.910156 255.660156 156.589844 251.96875 150.238281 Z M 187.855469 87.882812 C 195.042969 95.652344 202.234375 104.324219 209.3125 113.738281 C 202.179688 113.402344 194.960938 113.226562 187.683594 113.226562 C 180.480469 113.226562 173.316406 113.398438 166.226562 113.730469 C 173.300781 104.40625 180.5625 95.742188 187.855469 87.882812 Z M 123.328125 150.347656 C 119.726562 156.582031 116.292969 162.867188 113.039062 169.167969 C 108.503906 158.429688 104.625 147.871094 101.457031 137.671875 C 111.855469 135.351562 122.945312 133.449219 134.503906 132.011719 C 130.675781 137.972656 126.941406 144.089844 123.328125 150.34375 Z M 134.835938 243.25 C 122.894531 241.925781 111.636719 240.121094 101.242188 237.863281 C 104.460938 227.484375 108.425781 216.707031 113.054688 205.734375 C 116.320312 212.03125 119.765625 218.3125 123.390625 224.570312 C 127.082031 230.9375 130.910156 237.164062 134.835938 243.25 Z M 188.28125 287.363281 C 180.90625 279.417969 173.542969 270.617188 166.355469 261.164062 C 173.332031 261.433594 180.449219 261.574219 187.683594 261.574219 C 195.117188 261.574219 202.464844 261.40625 209.683594 261.089844 C 202.589844 270.714844 195.414062 279.53125 188.28125 287.363281 Z M 262.605469 205.179688 C 267.476562 216.265625 271.589844 226.984375 274.851562 237.195312 C 264.285156 239.597656 252.867188 241.53125 240.851562 242.980469 C 244.636719 236.996094 248.367188 230.808594 252.042969 224.457031 C 255.757812 218.03125 259.273438 211.589844 262.605469 205.179688 Z M 238.542969 216.695312 C 232.847656 226.558594 226.996094 235.972656 221.058594 244.855469 C 210.25 245.625 199.074219 246.023438 187.683594 246.023438 C 176.335938 246.023438 165.300781 245.679688 154.679688 244.984375 C 148.5 235.984375 142.527344 226.546875 136.863281 216.777344 L 136.867188 216.777344 C 131.21875 207.039062 126.023438 197.21875 121.3125 187.449219 C 126.019531 177.667969 131.203125 167.832031 136.820312 158.113281 L 136.816406 158.113281 C 142.445312 148.367188 148.371094 138.96875 154.492188 130.019531 C 165.328125 129.199219 176.449219 128.773438 187.683594 128.773438 C 198.976562 128.773438 210.09375 129.203125 220.929688 130.03125 C 226.96875 138.914062 232.847656 148.28125 238.5 158.027344 C 244.210938 167.886719 249.464844 177.65625 254.207031 187.238281 C 249.480469 196.976562 244.238281 206.839844 238.542969 216.695312 Z M 270.664062 43.066406 C 282.882812 50.097656 287.625 78.4375 279.949219 115.609375 C 279.464844 117.980469 278.910156 120.394531 278.3125 122.84375 C 263.191406 119.359375 246.773438 116.765625 229.585938 115.15625 C 219.5625 100.914062 209.183594 87.96875 198.761719 76.761719 C 201.566406 74.070312 204.371094 71.503906 207.148438 69.082031 C 234.058594 45.703125 259.21875 36.46875 270.664062 43.066406 Z M 187.683594 154.574219 C 205.652344 154.574219 220.234375 169.121094 220.234375 187.074219 C 220.234375 205.015625 205.652344 219.574219 187.683594 219.574219 C 169.714844 219.574219 155.132812 205.015625 155.132812 187.078125 C 155.132812 169.121094 169.714844 154.574219 187.683594 154.574219 Z M 187.683594 154.574219 " fill-opacity="1" fill-rule="nonzero"/></g></svg>