 <svg
          width="364"
          height="201"
          viewBox="0 0 364 201"
          fill="none"
          xmlns="http://www.w3.org/2000/svg"
        >
          <path
            d="M5.88928 72.3303C33.6599 66.4798 101.397 64.9086 150.178 105.427C211.155 156.076 229.59 162.093 264.333 166.607C299.076 171.12 337.718 183.657 362.889 212.24"
            stroke="url(#paint0_linear_25:218)"
          />
          <path
            d="M-22.1107 72.3303C5.65989 66.4798 73.3965 64.9086 122.178 105.427C183.155 156.076 201.59 162.093 236.333 166.607C271.076 171.12 309.718 183.657 334.889 212.24"
            stroke="url(#paint1_linear_25:218)"
          />
          <path
            d="M-53.1107 72.3303C-25.3401 66.4798 42.3965 64.9086 91.1783 105.427C152.155 156.076 170.59 162.093 205.333 166.607C240.076 171.12 278.718 183.657 303.889 212.24"
            stroke="url(#paint2_linear_25:218)"
          />
          <path
            d="M-98.1618 65.0889C-68.1416 60.0601 4.73364 60.4882 56.0734 102.431C120.248 154.86 139.336 160.972 177.353 166.104C215.37 171.237 257.447 185.808 285.161 216.583"
            stroke="url(#paint3_linear_25:218)"
          />
          <defs>
            <linearGradient
              id="paint0_linear_25:218"
              x1="184.389"
              y1="212.24"
              x2="184.389"
              y2="69.0094"
              gradientUnits="userSpaceOnUse"
            >
              <stop stopColor="#4A6CF7" stopOpacity="0" />
              <stop offset="1" stopColor="#4A6CF7" />
            </linearGradient>
            <linearGradient
              id="paint1_linear_25:218"
              x1="156.389"
              y1="212.24"
              x2="156.389"
              y2="69.0094"
              gradientUnits="userSpaceOnUse"
            >
              <stop stopColor="#4A6CF7" stopOpacity="0" />
              <stop offset="1" stopColor="#4A6CF7" />
            </linearGradient>
            <linearGradient
              id="paint2_linear_25:218"
              x1="125.389"
              y1="212.24"
              x2="125.389"
              y2="69.0094"
              gradientUnits="userSpaceOnUse"
            >
              <stop stopColor="#4A6CF7" stopOpacity="0" />
              <stop offset="1" stopColor="#4A6CF7" />
            </linearGradient>
            <linearGradient
              id="paint3_linear_25:218"
              x1="95.5308"
              y1="216.583"
              x2="95.5308"
              y2="65.0889"
              gradientUnits="userSpaceOnUse"
            >
              <stop stopColor="#4A6CF7" stopOpacity="0" />
              <stop offset="1" stopColor="#4A6CF7" />
            </linearGradient>
          </defs>
        </svg>