 <svg  version="1.0" xmlns="http://www.w3.org/2000/svg"  width="120.000000pt" height="123.000000pt" viewBox="0 0 120.000000 123.000000"  preserveAspectRatio="xMidYMid meet">  <g transform="translate(0.000000,123.000000) scale(0.100000,-0.100000)" fill="#00000" stroke="none"> <path d="M312 1082 c-127 -64 -232 -122 -232 -129 0 -7 119 -71 265 -143 232 -115 269 -131 298 -124 17 3 121 51 229 105 109 55 201 99 205 99 12 0 0 -572 -12 -593 -6 -9 -104 -64 -218 -122 l-207 -104 0 254 0 255 -27 30 c-18 20 -117 75 -285 159 -142 70 -260 126 -263 123 -3 -3 -5 -127 -5 -276 0 -242 2 -275 18 -306 16 -31 45 -49 238 -147 120 -62 221 -112 224 -113 3 0 5 11 5 24 0 21 -23 35 -198 122 -109 55 -206 108 -217 119 -17 18 -19 43 -22 268 -2 136 -1 247 2 246 3 0 108 -53 235 -117 169 -86 233 -124 242 -142 9 -18 13 -100 13 -292 0 -208 3 -268 13 -267 6 0 115 53 241 117 158 81 236 126 250 145 20 27 21 44 24 349 2 246 0 323 -9 329 -8 4 -105 -39 -241 -107 -125 -63 -238 -114 -251 -114 -13 0 -119 47 -235 105 -116 58 -216 105 -222 105 -5 0 -10 3 -10 8 0 9 405 212 424 212 8 0 105 -45 216 -100 185 -92 203 -99 226 -87 23 12 13 18 -193 120 -159 78 -228 107 -253 107 -24 -1 -111 -39 -268 -118z"/> </g> </svg> 